<?xml version="1.0" encoding="UTF-8"?>
<svg version="1.1" xmlns="http://www.w3.org/2000/svg" width="551" height="551">
<path d="M0 0 C181.83 0 363.66 0 551 0 C551 181.83 551 363.66 551 551 C369.17 551 187.34 551 0 551 C0 369.17 0 187.34 0 0 Z " fill="#FABB4C" transform="translate(0,0)"/>
<path d="M0 0 C181.83 0 363.66 0 551 0 C551 181.83 551 363.66 551 551 C369.17 551 187.34 551 0 551 C0 369.17 0 187.34 0 0 Z M66 58 C65.03320312 58.83402344 64.06640625 59.66804688 63.0703125 60.52734375 C54.27541949 68.25640189 46.2600094 76.4362692 41 87 C40.52304687 87.47050781 40.04609375 87.94101563 39.5546875 88.42578125 C25.18253226 102.9784912 21.77730991 132.25404922 21.625 151.5 C21.8979102 179.58142938 30.81740246 203.30233072 47 226 C47.49886719 226.72703125 47.99773438 227.4540625 48.51171875 228.203125 C65.25748177 252.50297039 95.59299871 267.65789556 124 273 C131.99186789 274.08593865 139.9334493 274.13624185 147.98681641 274.11352539 C149.38975713 274.11321843 150.792698 274.11335361 152.19563866 274.11389065 C155.92442011 274.11411475 159.65316894 274.10835404 163.38194275 274.10128021 C166.89159234 274.09555002 170.40123433 274.09531518 173.91088867 274.09460449 C184.14893004 274.08937451 194.38696544 274.07541325 204.625 274.0625 C238.965625 274.0315625 238.965625 274.0315625 274 274 C273.505 393.295 273.505 393.295 273 515 C264.00063091 507.12555205 264.00063091 507.12555205 260.89453125 503.9921875 C260.22099609 503.31542969 259.54746094 502.63867188 258.85351562 501.94140625 C258.17998047 501.25949219 257.50644531 500.57757813 256.8125 499.875 C256.12736328 499.18535156 255.44222656 498.49570312 254.73632812 497.78515625 C251.97831915 495.00856589 249.22466904 492.2277991 246.4765625 489.44140625 C243.23504469 486.24590368 239.89785378 483.15947017 236.5625 480.0625 C227.96292409 472.04286079 219.66722975 463.74416047 211.41015625 455.375 C209.04427641 453.04363057 206.61209273 450.82603733 204.125 448.625 C200.53362471 445.41613806 197.09088996 442.12326524 193.71875 438.6875 C191.24704795 436.26073799 188.62984261 434.01708604 185.9921875 431.7734375 C183.55965402 429.60800574 181.28996473 427.31621074 179 425 C177.80276204 423.80140501 176.60479221 422.6035408 175.40625 421.40625 C172.80208333 418.80208333 170.19791667 416.19791667 167.59375 413.59375 C166.97822266 412.97886719 166.36269531 412.36398437 165.72851562 411.73046875 C164.21015789 410.21039536 162.69829929 408.68383595 161.1875 407.15625 C159.01973714 404.94521599 159.01973714 404.94521599 156.5 403 C153.7899935 400.8319948 151.42278499 398.48335462 149 396 C148.236875 395.236875 147.47375 394.47375 146.6875 393.6875 C145.18162923 392.18162923 143.67883791 390.67260847 142.1875 389.15234375 C138.25163596 385.16266907 134.23105522 381.36445316 129.95703125 377.73828125 C125.77056949 374.01976731 121.92396359 369.91852556 117.98046875 365.9453125 C116.54165542 364.49911726 115.10235519 363.05340855 113.6628418 361.60791016 C112.68374233 360.623788 111.70554305 359.63876938 110.72827148 358.65283203 C104.07002952 351.91260712 104.07002952 351.91260712 97.05078125 345.5546875 C90.81885135 340.22076 85.17688515 334.23102996 79.41796875 328.39746094 C74.06612851 322.98254069 68.71795033 317.64504336 62.921875 312.69921875 C58.28908419 308.6031537 54.04430965 304.07919548 49.7109375 299.671875 C45.56451459 295.48270546 41.34095888 291.48870661 36.87060547 287.64794922 C33.96385091 285.08718267 31.26547263 282.33504722 28.5625 279.5625 C26.72855704 277.68377211 24.88081745 275.83266853 23 274 C22.67 274 22.34 274 22 274 C22 354.52 22 435.04 22 518 C90.44823667 518.08743823 90.44823667 518.08743823 158.89648438 518.14648438 C168.13696305 518.15235746 177.37744158 518.15841876 186.61791992 518.16479492 C188.354992 518.16598179 188.354992 518.16598179 190.12715644 518.16719264 C208.79154895 518.18021933 227.45591358 518.20385903 246.12028959 518.23145839 C265.29330965 518.25957217 284.46631517 518.27618886 303.639355 518.28226548 C315.45786613 518.28636956 327.27629841 518.29930383 339.09478525 518.3237494 C347.2133155 518.33968042 355.33180535 518.34438379 363.45035007 518.34050413 C368.12529576 518.33859399 372.80010426 518.34139751 377.47502518 518.35761642 C411.13921836 518.46864689 441.21698023 515.97581903 471 499 C471 498.34 471 497.68 471 497 C471.74507813 496.72542969 472.49015625 496.45085937 473.2578125 496.16796875 C488.82551902 489.53727893 501.69067005 472.19680781 510 458 C510.36174316 457.39188477 510.72348633 456.78376953 511.09619141 456.15722656 C527.71760274 427.87601922 531.37955286 394.00359829 523.29980469 362.24804688 C520.02690717 350.99257289 515.35071097 340.83663017 509 331 C508.44699219 330.1234375 507.89398438 329.246875 507.32421875 328.34375 C502.61209814 321.2362077 496.85951492 315.15686344 491 309 C490.40445312 308.34 489.80890625 307.68 489.1953125 307 C478.51754952 295.52538903 461.94863486 285.57611271 447 281 C446.27554687 280.74089844 445.55109375 280.48179687 444.8046875 280.21484375 C440.76622967 278.78205756 437.35390531 277.57865432 433 278 C433 277.34 433 276.68 433 276 C431.4183067 275.67930234 429.83448591 275.3691025 428.25 275.0625 C427.36828125 274.88847656 426.4865625 274.71445312 425.578125 274.53515625 C415.82492641 273.0764355 406.09089066 272.85747366 396.24511719 272.88647461 C394.89199451 272.8867818 393.53887166 272.88664601 392.18574905 272.88610935 C388.60004546 272.8858859 385.01437603 272.89163259 381.42868042 272.89871979 C378.04962063 272.90446402 374.67056866 272.90468557 371.29150391 272.90539551 C361.44433151 272.91061865 351.59716531 272.92457991 341.75 272.9375 C319.7225 272.958125 297.695 272.97875 275 273 C275 193.47 275 113.94 275 32 C280.37450168 36.70268897 285.4667705 41.36970376 290.421875 46.4609375 C293.09299266 49.1751377 295.82574111 51.74111751 298.71875 54.21875 C304.88607616 59.55360438 310.50159742 65.45857873 316.22265625 71.26171875 C320.68304828 75.76106617 325.18302062 80.09645446 329.99414062 84.21679688 C334.87225711 88.55342818 339.35723934 93.3228451 343.93359375 97.97265625 C348.15070923 102.23078095 352.43100246 106.30100894 356.97705078 110.20410156 C360.88173267 113.67053168 364.51685808 117.41435947 368.1875 121.125 C369.35829102 122.30255859 369.35829102 122.30255859 370.55273438 123.50390625 C373.23060081 126.19767181 375.90754961 128.89230612 378.57470703 131.59667969 C380.48521666 133.5262732 382.37545242 135.30036194 384.5 137 C387.21374684 139.17099747 389.55564273 141.52786595 392 144 C393.05141683 145.05274942 394.10353039 146.10480333 395.15625 147.15625 C397.38541667 149.38541667 399.61458333 151.61458333 401.84375 153.84375 C402.37677734 154.37613281 402.90980469 154.90851563 403.45898438 155.45703125 C404.89395778 156.89382338 406.32225206 158.33727765 407.75 159.78125 C409.96868448 162.04565807 409.96868448 162.04565807 412.5 164 C415.2149377 166.17195016 417.55593406 168.52490924 420 171 C429.81860598 181.06445363 429.81860598 181.06445363 440.25390625 190.47265625 C442.61602123 192.53884631 444.78658139 194.77536305 447 197 C447.79728516 197.79728516 448.59457031 198.59457031 449.41601562 199.41601562 C468 218 468 218 470.67016602 220.68383789 C472.8601976 222.86101798 475.1143238 224.90421754 477.4375 226.9375 C482.42894176 231.39174624 487.14737006 236.0824067 491.82592773 240.86303711 C494.70510365 243.78567859 497.62814811 246.57838152 500.74609375 249.24609375 C506.08857511 253.85771542 510.98619757 258.91452613 515.9375 263.9375 C517.81878142 265.84530947 519.70329193 267.74972477 521.58984375 269.65234375 C522.41347412 270.48757568 523.23710449 271.32280762 524.08569336 272.18334961 C525.68104633 274.11472713 525.68104633 274.11472713 527 274 C527 193.48 527 112.96 527 30 C457.9941461 29.91256621 457.9941461 29.91256621 388.98828125 29.85351562 C379.67399072 29.84764248 370.35970035 29.84158117 361.04541016 29.83520508 C359.87810155 29.83441383 358.71079295 29.83362259 357.50811136 29.83280736 C338.6911067 29.81977842 319.87412969 29.79613746 301.05714139 29.76854161 C281.72931444 29.74043413 262.40150192 29.72381246 243.07365537 29.71773452 C231.15840683 29.71362914 219.24323643 29.70068773 207.32801196 29.6762506 C199.14454579 29.66032738 190.9611197 29.65561447 182.77763918 29.65949587 C178.06433779 29.66140721 173.35117245 29.65858848 168.63789558 29.64238358 C131.30882164 29.52048513 95.45569609 32.19163932 66 58 Z " fill="#352B4E" transform="translate(0,0)"/>
<path d="M0 0 C83.49 0 166.98 0 253 0 C253 80.52 253 161.04 253 244 C251.35 242.35 249.7 240.7 248 239 C249.32 239.33 250.64 239.66 252 240 C252 161.13 252 82.26 252 1 C128.25 1.495 128.25 1.495 2 2 C1.505 121.295 1.505 121.295 1 243 C45.55 243 90.1 243 136 243 C136 243.33 136 243.66 136 244 C91.45 244 46.9 244 1 244 C1 324.19 1 404.38 1 487 C45.55 487 90.1 487 136 487 C136 487.33 136 487.66 136 488 C7.96 488 -120.08 488 -252 488 C-252 487.67 -252 487.34 -252 487 C-169.17 486.67 -86.34 486.34 -1 486 C-0.505 366.21 -0.505 366.21 0 244 C-46.2 244 -92.4 244 -140 244 C-140 243.67 -140 243.34 -140 243 C-93.8 243 -47.6 243 0 243 C0 162.81 0 82.62 0 0 Z " fill="#91714B" transform="translate(274,30)"/>
<path d="M0 0 C1.63466563 -0.00087341 3.26933099 -0.00262686 4.90399486 -0.00517833 C9.3713984 -0.00962935 13.83870521 -0.00167922 18.30609643 0.00837779 C23.13280559 0.01704251 27.95950962 0.01409 32.78622437 0.01257324 C41.14071627 0.0115263 49.49517685 0.01778296 57.84966087 0.02904892 C69.92872808 0.04532682 82.00778019 0.05051427 94.08685718 0.0530249 C113.68599055 0.05739841 133.28510725 0.07069818 152.88423157 0.08963013 C171.91906145 0.10799783 190.9538868 0.12214998 209.98872375 0.13064575 C211.7497032 0.13143392 211.7497032 0.13143392 213.546258 0.13223802 C219.43600506 0.13484816 225.32575216 0.13737556 231.21549928 0.13986182 C280.0501566 0.16058361 328.88479581 0.19579977 377.71943665 0.24050903 C377.71943665 0.90050903 377.71943665 1.56050903 377.71943665 2.24050903 C376.89816803 2.24224528 376.07689942 2.24398153 375.23074389 2.24577039 C326.52155431 2.34886925 277.81237811 2.45699673 229.10321423 2.57162597 C223.25051632 2.58539503 217.39781831 2.5991222 211.54512024 2.61282349 C209.79742013 2.61691594 209.79742013 2.61691594 208.01441294 2.62109108 C189.16560294 2.6651281 170.31678708 2.70577482 151.46796685 2.74516165 C132.11754831 2.78567234 112.76714059 2.82984259 93.41673803 2.87738758 C81.48309075 2.90659454 69.54944417 2.93297027 57.61578274 2.95568801 C49.42486929 2.97155464 41.23396905 2.99098609 33.04307032 3.01317745 C28.32221776 3.02586359 23.60137517 3.03701958 18.88051033 3.04392815 C14.54843185 3.05030266 10.21638802 3.06120853 5.88432878 3.07554234 C4.32685771 3.07992721 2.76938107 3.08272621 1.21190411 3.08367103 C-8.9892224 3.09103574 -19.10628825 3.49526657 -29.28056335 4.24050903 C-22.7997327 -2.24032162 -8.61118995 -0.03441035 0 0 Z " fill="#4B363A" transform="translate(149.2805633544922,27.759490966796875)"/>
<path d="M0 0 C1.38279435 0.00030688 2.76558886 0.00017192 4.14838314 -0.00036526 C7.82749962 -0.00058959 11.5065831 0.00517608 15.18569183 0.01224518 C18.64711096 0.0179704 22.10852235 0.01820994 25.56994629 0.0189209 C35.67090275 0.02415331 45.77185317 0.03811457 55.87280273 0.05102539 C89.74936523 0.08196289 89.74936523 0.08196289 124.31030273 0.11352539 C124.31030273 80.30352539 124.31030273 160.49352539 124.31030273 243.11352539 C99.80780273 243.17540039 75.30530273 243.23727539 50.06030273 243.30102539 C42.33849609 243.3283374 34.61668945 243.35564941 26.66088867 243.38378906 C17.19360352 243.39733887 17.19360352 243.39733887 12.75421143 243.39985657 C9.66967221 243.40263883 6.58528966 243.41383029 3.50079346 243.43025208 C-0.44605227 243.45098336 -4.39267349 243.45697069 -8.33956861 243.45274222 C-9.78033061 243.4536251 -11.22110127 243.45948238 -12.66181612 243.47117078 C-21.46110443 243.53918407 -29.2627916 242.70750666 -37.68969727 240.11352539 C-37.68969727 239.78352539 -37.68969727 239.45352539 -37.68969727 239.11352539 C-34.23102934 239.25203244 -30.77286452 239.40057266 -27.31469727 239.55102539 C-26.32985352 239.5903418 -25.34500977 239.6296582 -24.33032227 239.67016602 C-22.91879883 239.73300781 -22.91879883 239.73300781 -21.47875977 239.79711914 C-20.17479248 239.85210571 -20.17479248 239.85210571 -18.84448242 239.90820312 C-16.68969727 240.11352539 -16.68969727 240.11352539 -14.68969727 241.11352539 C-12.86546746 241.21886748 -11.03740652 241.26013704 -9.21017456 241.27174377 C-7.46796033 241.28640481 -7.46796033 241.28640481 -5.69054985 241.30136204 C-3.76209315 241.31001742 -3.76209315 241.31001742 -1.79467773 241.31884766 C-0.41273259 241.32855998 0.96920956 241.33870528 2.35114861 241.34924984 C6.05965707 241.37634603 9.76817743 241.39749796 13.47673035 241.41744232 C16.95375091 241.43703532 20.43072519 241.46195741 23.90771484 241.4864502 C34.08354271 241.55501205 44.25942693 241.61499158 54.43530273 241.67602539 C77.16405273 241.82040039 99.89280273 241.96477539 123.31030273 242.11352539 C123.31030273 162.91352539 123.31030273 83.71352539 123.31030273 2.11352539 C88.25811523 2.33008789 88.25811523 2.33008789 52.49780273 2.55102539 C45.11171631 2.59412842 37.72562988 2.63723145 30.11572266 2.68164062 C23.510837 2.72488069 23.510837 2.72488069 16.90596008 2.76942444 C13.95776814 2.7892722 11.00957388 2.80635711 8.06135559 2.8217926 C4.30413622 2.84155325 0.54697477 2.86598067 -3.21019304 2.89383137 C-5.24427212 2.90772702 -7.27838242 2.91679356 -9.31248951 2.92568874 C-11.10714917 2.94034978 -11.10714917 2.94034978 -12.93806458 2.95530701 C-13.98245603 2.96175956 -15.02684748 2.96821211 -16.10288715 2.97486019 C-18.80639014 3.00520445 -18.80639014 3.00520445 -21.68969727 4.11352539 C-23.24148655 4.32536247 -24.79858398 4.49972476 -26.35766602 4.64868164 C-27.69667969 4.77919922 -27.69667969 4.77919922 -29.06274414 4.91235352 C-29.99151367 4.99936523 -30.9202832 5.08637695 -31.87719727 5.17602539 C-32.81756836 5.2669043 -33.75793945 5.3577832 -34.72680664 5.45141602 C-37.04748947 5.67523822 -39.36843415 5.89581785 -41.68969727 6.11352539 C-38.22304608 3.8024246 -35.08033855 3.25246366 -31.06469727 2.55102539 C-30.39051758 2.4253418 -29.71633789 2.2996582 -29.02172852 2.17016602 C-19.30082084 0.40859736 -9.86520994 -0.02816142 0 0 Z " fill="#F7C166" transform="translate(149.689697265625,29.886474609375)"/>
<path d="M0 0 C24.028125 -0.04125 48.05625 -0.0825 72.8125 -0.125 C84.17393433 -0.15231201 84.17393433 -0.15231201 95.76489258 -0.18017578 C105.04626465 -0.18920898 105.04626465 -0.18920898 109.39750671 -0.19088745 C112.42288677 -0.19274341 115.44819594 -0.20020907 118.47355652 -0.21115112 C122.34333376 -0.22495991 126.21300926 -0.22896566 130.08280885 -0.22614455 C131.49630504 -0.22673369 132.90980511 -0.23064563 134.32327998 -0.23843026 C142.44875146 -0.28106961 150.06421555 0.19456517 158 2 C158 2.33 158 2.66 158 3 C151.73 3 145.46 3 139 3 C139 2.34 139 1.68 139 1 C93.46 1 47.92 1 1 1 C1 80.53 1 160.06 1 242 C45.22 242 89.44 242 135 242 C135 242.33 135 242.66 135 243 C90.45 243 45.9 243 0 243 C0 162.81 0 82.62 0 0 Z " fill="#F6C267" transform="translate(275,274)"/>
<path d="M0 0 C82.83 0 165.66 0 251 0 C251 80.52 251 161.04 251 244 C249.35 242.35 247.7 240.7 246 239 C247.32 239.33 248.64 239.66 250 240 C250 161.13 250 82.26 250 1 C167.5 1 85 1 0 1 C0 0.67 0 0.34 0 0 Z " fill="#BE935A" transform="translate(276,30)"/>
<path d="M0 0 C1.98 1.65 3.96 3.3 6 5 C5.34 5.66 4.68 6.32 4 7 C4 6.34 4 5.68 4 5 C3.34 5 2.68 5 2 5 C2.16302518 5.63384582 2.32605036 6.26769163 2.49401569 6.9207449 C3.17365737 11.05682201 3.12179871 15.08379933 3.0957489 19.26808167 C3.09393091 20.20466502 3.09211291 21.14124837 3.09023982 22.10621303 C3.08285644 25.24605485 3.0681631 28.38581928 3.0534668 31.52563477 C3.04659695 33.77600993 3.0401477 36.02638642 3.03408813 38.27676392 C3.01616297 44.39020266 2.9916051 50.50359765 2.96532798 56.61700559 C2.94384665 61.71676654 2.92518384 66.8165364 2.90639621 71.91630787 C2.86442433 83.25615486 2.81770189 94.59597205 2.76722922 105.93578351 C2.76420227 106.61592759 2.76117532 107.29607167 2.75805664 107.99682617 C2.75502515 108.67780021 2.75199365 109.35877424 2.74887029 110.06038385 C2.69995666 121.10540296 2.66103007 132.15043179 2.62663569 143.19550479 C2.59120799 154.53652315 2.54822904 165.87748693 2.49788028 177.21845096 C2.46973516 183.58564226 2.44468054 189.95280941 2.4272213 196.32003975 C2.41053839 202.3044574 2.38440592 208.28875918 2.35091019 214.27310562 C2.34021662 216.47255628 2.33292787 218.67202644 2.32924461 220.87150002 C2.32370196 223.8674293 2.3060218 226.86304567 2.28520203 229.85890198 C2.28645464 230.73486717 2.28770726 231.61083237 2.28899783 232.51334196 C2.27687454 233.71720939 2.27687454 233.71720939 2.26450634 234.94539738 C2.26168595 235.63681578 2.25886555 236.32823418 2.25595969 237.04060465 C2 239 2 239 0 243 C0 162.81 0 82.62 0 0 Z " fill="#E1AC58" transform="translate(22,274)"/>
<path d="M0 0 C-0.33 0.66 -0.66 1.32 -1 2 C-10.26635362 4.71104501 -20.18192058 4.27791463 -29.74249268 4.24050903 C-31.41514455 4.24138261 -33.08779615 4.24313637 -34.76044631 4.24568737 C-39.32820391 4.25013511 -43.89586677 4.24219282 -48.46361232 4.23213124 C-53.4000527 4.22346175 -58.33648811 4.22641937 -63.27293396 4.22793579 C-71.81620795 4.22898243 -80.3594513 4.22272892 -88.90271759 4.21146011 C-101.25471057 4.19517812 -113.60668878 4.18999435 -125.95869133 4.18748413 C-146.00095235 4.18311126 -166.04319705 4.16981323 -186.08544922 4.15087891 C-205.54996662 4.13250954 -225.01447958 4.11835821 -244.47900391 4.10986328 C-245.67961044 4.10933783 -246.88021698 4.10881239 -248.11720553 4.10827102 C-254.1405386 4.10566087 -260.16387171 4.10313347 -266.18720484 4.10064721 C-316.1248145 4.07992742 -366.06240645 4.04471301 -416 4 C-416 3.67 -416 3.34 -416 3 C-415.1869779 2.99902319 -414.3739558 2.99804638 -413.53629667 2.99703997 C-365.28604811 2.93869231 -317.03584433 2.86483851 -268.78565105 2.77101372 C-262.98446094 2.75974636 -257.18327059 2.74860778 -251.38208008 2.73754883 C-250.22723007 2.73534514 -249.07238005 2.73314146 -247.88253459 2.730871 C-229.2149335 2.69555617 -210.54733246 2.67065926 -191.87971041 2.64965298 C-172.706662 2.62784452 -153.5336567 2.59474643 -134.360645 2.55129844 C-122.54215971 2.52486845 -110.7237281 2.50710945 -98.90521475 2.50065396 C-90.78665863 2.4953735 -82.66816987 2.47906801 -74.54964993 2.45433434 C-69.87472545 2.44040989 -65.19992131 2.43111428 -60.52497482 2.43499184 C-35.62371997 2.54176488 -35.62371997 2.54176488 -10.94136333 -0.45660686 C-6.83089276 -1.0233147 -4.01962189 -0.79739652 0 0 Z " fill="#3D2F3C" transform="translate(438,515)"/>
<path d="M0 0 C1.36091612 0.00028258 2.72183238 0.00012275 4.08274841 -0.0004425 C7.75153352 -0.0007277 11.42028548 0.00512388 15.08906293 0.01213145 C18.93274086 0.01841148 22.77641966 0.01897245 26.62010193 0.02015686 C33.88716597 0.02325652 41.15421484 0.03145142 48.42127222 0.04150635 C56.69943499 0.05271 64.97759851 0.05818863 73.25576699 0.06320179 C90.27395432 0.07363525 107.29212692 0.09120812 124.31030273 0.11352539 C124.31030273 0.77352539 124.31030273 1.43352539 124.31030273 2.11352539 C123.57608439 2.11775733 122.84186605 2.12198927 122.08539867 2.12634945 C104.23392413 2.22957951 86.38248992 2.33820576 68.53108501 2.45286465 C59.89834133 2.5081818 51.26559352 2.56166135 42.6328125 2.61083984 C35.10994294 2.65370013 27.58710363 2.6999828 20.06428081 2.75040394 C16.07970018 2.77699 12.09512549 2.80184273 8.11050987 2.82259941 C4.36198102 2.84218029 0.61350966 2.86632844 -3.1349678 2.89401627 C-4.51243356 2.90337901 -5.88991193 2.91105709 -7.26739693 2.9169445 C-9.14499017 2.92521875 -11.02255094 2.94008439 -12.90010071 2.95530701 C-14.4777494 2.96498583 -14.4777494 2.96498583 -16.08726978 2.97486019 C-18.80393336 3.00421369 -18.80393336 3.00421369 -21.68969727 4.11352539 C-23.24148655 4.32536247 -24.79858398 4.49972476 -26.35766602 4.64868164 C-27.69667969 4.77919922 -27.69667969 4.77919922 -29.06274414 4.91235352 C-29.99151367 4.99936523 -30.9202832 5.08637695 -31.87719727 5.17602539 C-32.81756836 5.2669043 -33.75793945 5.3577832 -34.72680664 5.45141602 C-37.04748947 5.67523822 -39.36843415 5.89581785 -41.68969727 6.11352539 C-38.22304608 3.8024246 -35.08033855 3.25246366 -31.06469727 2.55102539 C-30.39051758 2.4253418 -29.71633789 2.2996582 -29.02172852 2.17016602 C-19.30080315 0.40859415 -9.86525427 -0.02819321 0 0 Z " fill="#CFA863" transform="translate(149.689697265625,29.886474609375)"/>
<path d="M0 0 C82.5 0 165 0 250 0 C250 0.33 250 0.66 250 1 C168.82 1.33 87.64 1.66 4 2 C4.99 2.33 5.98 2.66 7 3 C7.99 4.485 7.99 4.485 9 6 C8.67 6.99 8.34 7.98 8 9 C6.66368764 7.6905332 5.33102075 6.37734515 4 5.0625 C3.2575 4.33160156 2.515 3.60070313 1.75 2.84765625 C0 1 0 1 0 0 Z " fill="#F8C365" transform="translate(276,31)"/>
<path d="M0 0 C3.45866792 0.13850705 6.91683275 0.28704727 10.375 0.4375 C11.35984375 0.47681641 12.3446875 0.51613281 13.359375 0.55664062 C14.30039063 0.59853516 15.24140625 0.64042969 16.2109375 0.68359375 C17.08024902 0.72025146 17.94956055 0.75690918 18.84521484 0.79467773 C21 1 21 1 23 2 C24.82422981 2.10534208 26.65229075 2.14661165 28.47952271 2.15821838 C29.64342529 2.1680072 30.80732788 2.17779602 32.00650024 2.18788147 C33.28971161 2.19363693 34.57292297 2.1993924 35.89501953 2.20532227 C37.2549062 2.21489864 38.61478988 2.22490858 39.97467041 2.23532104 C43.67276204 2.26240227 47.37086647 2.28339437 51.06900263 2.30332303 C54.9314321 2.32516277 58.79382195 2.35256129 62.65621948 2.37937927 C69.97307007 2.42933342 77.28994261 2.47426213 84.6068362 2.51740164 C92.93564986 2.56675078 101.26442378 2.62167751 109.59319901 2.67708123 C126.72876263 2.79094305 143.86436311 2.89777292 161 3 C161 3.33 161 3.66 161 4 C141.78008632 4.07022623 122.56019884 4.12305469 103.34018326 4.15543652 C94.41505889 4.17087472 85.49001445 4.19190566 76.56494141 4.22631836 C68.78161778 4.25631435 60.99835208 4.27559713 53.21497226 4.28226548 C49.09755958 4.28616054 44.98031254 4.29525019 40.86295319 4.31719017 C36.97894352 4.33771691 33.09516602 4.34380151 29.21110725 4.33932304 C27.79385932 4.34014107 26.37660273 4.34600966 24.95940208 4.35761642 C16.18316276 4.4259017 8.40535281 3.58336355 0 1 C0 0.67 0 0.34 0 0 Z " fill="#F1C262" transform="translate(112,269)"/>
<path d="M0 0 C18.97643067 -0.04680482 37.95284955 -0.08203032 56.92932606 -0.10362434 C65.74123379 -0.11391913 74.55310558 -0.12794495 83.36499023 -0.15087891 C91.04905446 -0.17086798 98.73309264 -0.1837295 106.41718215 -0.18817699 C110.48254383 -0.19077505 114.54783101 -0.19684385 118.61316872 -0.21146011 C122.4470744 -0.22513138 126.28087557 -0.22920354 130.11480331 -0.22621536 C131.51472608 -0.22676129 132.91465268 -0.23068151 134.31455421 -0.23841095 C142.44310237 -0.28105442 150.06120964 0.19388131 158 2 C158 2.33 158 2.66 158 3 C151.73 3 145.46 3 139 3 C139 2.34 139 1.68 139 1 C93.13 1 47.26 1 0 1 C0 0.67 0 0.34 0 0 Z " fill="#D1A562" transform="translate(275,274)"/>
<path d="M0 0 C2.38341255 2.38341255 2.40505587 3.35442022 2.8515625 6.62890625 C2.98095215 7.57266113 3.1103418 8.51641602 3.24365234 9.48876953 C3.36949707 10.50310059 3.4953418 11.51743164 3.625 12.5625 C3.75471191 13.60519043 3.88442383 14.64788086 4.01806641 15.72216797 C5.70688298 30.13797704 8.38426214 53.42360679 0 66 C-0.31707776 60.87978142 -0.25455481 55.9413144 0.7734375 50.90625 C3.76736348 35.9398498 2.20979791 21.97602345 0.32299805 6.98242188 C0 4 0 4 0 0 Z " fill="#D9AC5D" transform="translate(522,363)"/>
<path d="M0 0 C0.66 0 1.32 0 2 0 C2.66666667 2 3.33333333 4 4 6 C4.35320313 6.97710937 4.70640625 7.95421875 5.0703125 8.9609375 C8.12240552 18.84067566 8.4133145 28.55130417 8.4375 38.8125 C8.44340149 39.53725525 8.44930298 40.2620105 8.4553833 41.00872803 C8.4668924 43.09624228 8.4549338 45.18211918 8.43359375 47.26953125 C8.42384521 48.49260986 8.41409668 49.71568848 8.40405273 50.97583008 C8 54 8 54 6.47290039 55.9206543 C5.7438147 56.45493042 5.7438147 56.45493042 5 57 C5.01571045 56.33282959 5.0314209 55.66565918 5.04760742 54.97827148 C5.29784417 42.62164424 5.25825637 30.45637816 3.625 18.1875 C3.49891357 17.23480225 3.37282715 16.28210449 3.24291992 15.30053711 C2.60419163 10.90195842 1.79351517 7.09389332 0 3 C0 2.01 0 1.02 0 0 Z " fill="#493736" transform="translate(521,357)"/>
<path d="M0 0 C0.33 0 0.66 0 1 0 C0.98952637 0.7842334 0.97905273 1.5684668 0.96826172 2.37646484 C0.61330402 22.10780629 0.61330402 22.10780629 2.46435547 41.71826172 C3.02106374 45.46145325 3.19303593 47.80791437 1 51 C-2.20348811 34.3151661 -4.37870194 16.69380115 0 0 Z " fill="#F1BF5C" transform="translate(24,130)"/>
<path d="M0 0 C0.33 0 0.66 0 1 0 C1 29.37 1 58.74 1 89 C-0.65 87.35 -2.3 85.7 -4 84 C-2.68 84.33 -1.36 84.66 0 85 C0 56.95 0 28.9 0 0 Z " fill="#C69B54" transform="translate(526,185)"/>
<path d="M0 0 C0.33 0.99 0.66 1.98 1 3 C-0.32 3.33 -1.64 3.66 -3 4 C-3.11601563 4.85464844 -3.11601563 4.85464844 -3.234375 5.7265625 C-4.25782748 8.76558976 -5.92670213 10.1824838 -8.25 12.375 C-11.76834632 15.77048343 -14.92751783 19.20458085 -18 23 C-18.98290968 24.01680311 -19.97334787 25.02738219 -21 26 C-21.66 25.67 -22.32 25.34 -23 25 C-16.19491173 15.80815843 -9.36758834 6.76314674 0 0 Z " fill="#E3B25B" transform="translate(66,58)"/>
<path d="M0 0 C5.64620809 0.49528141 9.80159814 1.59333247 15 4 C15.91394531 4.29261719 16.82789063 4.58523438 17.76953125 4.88671875 C21.34842195 6.12007286 24.6877474 7.67848298 28.0625 9.375 C28.66126953 9.66632813 29.26003906 9.95765625 29.87695312 10.2578125 C33.63289965 12.13372884 36.81674285 14.2680553 40 17 C35.64477147 16.49357808 32.55760365 15.61588503 29 13 C29 12.34 29 11.68 29 11 C24.20588147 9.33093651 19.41820591 7.82500138 14.5 6.5625 C9.40098906 5.21043504 4.73722057 3.30427766 0 1 C0 0.67 0 0.34 0 0 Z " fill="#DFB061" transform="translate(433,278)"/>
<path d="M0 0 C5 2 5 2 10 4 C9.67 4.99 9.34 5.98 9 7 C9.66 7 10.32 7 11 7 C13 9.5 13 9.5 15 12 C17.81730122 14.60286097 20.80717207 16.87144805 24 19 C24 19.99 24 20.98 24 22 C25.32 22.66 26.64 23.32 28 24 C27.34 24.66 26.68 25.32 26 26 C22.25651042 22.25651042 18.51302083 18.51302083 14.76953125 14.76953125 C14.12153564 14.12226074 13.47354004 13.47499023 12.8059082 12.80810547 C11.27155098 11.27188138 9.74436841 9.72849666 8.21875 8.18359375 C6.43098771 6.42415868 4.6468153 4.80935171 2.6875 3.25 C1.800625 2.5075 0.91375 1.765 0 1 C0 0.67 0 0.34 0 0 Z " fill="#DEB163" transform="translate(465,214)"/>
<path d="M0 0 C0.67095703 0.58007812 0.67095703 0.58007812 1.35546875 1.171875 C4.07880695 3.51777827 6.79807848 5.84134737 9.625 8.0625 C12.27117265 10.22121979 14.61571793 12.55611087 17 15 C17.845625 15.825 18.69125 16.65 19.5625 17.5 C21.89129944 19.88851225 23.96378497 22.360462 26 25 C25.34 25.33 24.68 25.66 24 26 C24 25.34 24 24.68 24 24 C23.01 24 22.02 24 21 24 C16 18.65116279 16 18.65116279 16 16 C13.525 15.01 13.525 15.01 11 14 C11 13.34 11 12.68 11 12 C10.34 12 9.68 12 9 12 C9 11.34 9 10.68 9 10 C8.38125 9.7525 7.7625 9.505 7.125 9.25 C5 8 5 8 4 5.9375 C3.1704178 3.78719721 3.1704178 3.78719721 0.875 3.25 C-0.053125 3.12625 -0.053125 3.12625 -1 3 C-0.67 2.01 -0.34 1.02 0 0 Z " fill="#483535" transform="translate(425,176)"/>
<path d="M0 0 C1.61326849 0.01510308 3.22655096 0.02878135 4.83984375 0.04101562 C8.72691919 0.07350986 12.61329661 0.12496641 16.5 0.1875 C16.5 0.5175 16.5 0.8475 16.5 1.1875 C15.11494263 1.22508423 15.11494263 1.22508423 13.7019043 1.26342773 C10.27453584 1.35859045 6.84733539 1.45782214 3.42016602 1.55981445 C1.93713985 1.6031133 0.45406546 1.64479199 -1.02905273 1.68481445 C-3.16144339 1.74263958 -5.29359242 1.80629832 -7.42578125 1.87109375 C-8.70880127 1.90775146 -9.99182129 1.94440918 -11.3137207 1.98217773 C-14.52111551 2.05311234 -14.52111551 2.05311234 -17.5 3.1875 C-19.05178929 3.39933708 -20.60888672 3.57369937 -22.16796875 3.72265625 C-23.50698242 3.85317383 -23.50698242 3.85317383 -24.87304688 3.98632812 C-25.80181641 4.07333984 -26.73058594 4.16035156 -27.6875 4.25 C-28.62787109 4.34087891 -29.56824219 4.43175781 -30.53710938 4.52539062 C-32.8577922 4.74921283 -35.17873689 4.96979246 -37.5 5.1875 C-27.37088533 -1.56524311 -11.71612014 -0.19441276 0 0 Z " fill="#DFB763" transform="translate(145.5,30.8125)"/>
<path d="M0 0 C0.33 0 0.66 0 1 0 C1.1953125 6.0546875 1.1953125 6.0546875 1 8 C0.34 8.66 -0.32 9.32 -1 10 C-1.73556859 12.66643615 -2.39670508 15.3040258 -3 18 C-4.72972973 25.72972973 -4.72972973 25.72972973 -7 28 C-7.35722099 21.42561374 -6.15744527 16.270633 -4.0625 10.0625 C-3.78470703 9.20076172 -3.50691406 8.33902344 -3.22070312 7.45117188 C-1.16491328 1.16491328 -1.16491328 1.16491328 0 0 Z " fill="#D3A957" transform="translate(32,102)"/>
<path d="M0 0 C3.45866792 0.13850705 6.91683275 0.28704727 10.375 0.4375 C11.35984375 0.47681641 12.3446875 0.51613281 13.359375 0.55664062 C14.30039063 0.59853516 15.24140625 0.64042969 16.2109375 0.68359375 C17.08024902 0.72025146 17.94956055 0.75690918 18.84521484 0.79467773 C21 1 21 1 23 2 C24.53668865 2.22467831 26.07968054 2.40796805 27.625 2.5625 C28.44226563 2.64628906 29.25953125 2.73007812 30.1015625 2.81640625 C30.72804687 2.87699219 31.35453125 2.93757813 32 3 C32 3.33 32 3.66 32 4 C10.46808511 4.57446809 10.46808511 4.57446809 0 1 C0 0.67 0 0.34 0 0 Z " fill="#E6B75D" transform="translate(112,269)"/>
<path d="M0 0 C1.34699847 0.0100607 2.69400431 0.01918103 4.04101562 0.02734375 C7.29837021 0.05069396 10.55533549 0.0834423 13.8125 0.125 C13.8125 0.455 13.8125 0.785 13.8125 1.125 C12.96824463 1.154729 12.96824463 1.154729 12.10693359 1.18505859 C1.91571639 1.56097266 -8.11488931 1.99473977 -18.1796875 3.72265625 C-21.54386388 4.17266945 -24.79731839 4.18872522 -28.1875 4.125 C-21.9319523 -2.1305477 -8.12008278 -0.10540297 0 0 Z " fill="#433236" transform="translate(148.1875,27.875)"/>
<path d="M0 0 C0.33 0 0.66 0 1 0 C1.17015625 1.22074219 1.3403125 2.44148437 1.515625 3.69921875 C2.8119125 12.61709575 4.30001789 21.01744161 7.328125 29.53125 C8 32 8 32 7 35 C6.67 33.68 6.34 32.36 6 31 C5.34 31 4.68 31 4 31 C1.1367892 20.51956802 -0.17492249 10.84519429 0 0 Z " fill="#5B4337" transform="translate(22,162)"/>
<path d="M0 0 C-1.39113995 1.27596932 -2.78814413 2.54554648 -4.1875 3.8125 C-4.96480469 4.52019531 -5.74210937 5.22789062 -6.54296875 5.95703125 C-12.60803059 11 -12.60803059 11 -16 11 C-16 11.66 -16 12.32 -16 13 C-17.32 13.33 -18.64 13.66 -20 14 C-19.67 13.01 -19.34 12.02 -19 11 C-18.34 11 -17.68 11 -17 11 C-17 10.34 -17 9.68 -17 9 C-15.35 8.67 -13.7 8.34 -12 8 C-12 7.34 -12 6.68 -12 6 C-9 4 -9 4 -6 4 C-6.33 2.68 -6.66 1.36 -7 0 C-3.98968256 -0.93423645 -3.13349732 -1.04449911 0 0 Z " fill="#DCB460" transform="translate(487,486)"/>
<path d="M0 0 C1.04354778 3.22617941 0.89328358 5.28413926 0.125 8.5625 C-1.56464108 16.94220646 -1.66452845 25.48078818 -2 34 C-2.33 34 -2.66 34 -3 34 C-3.02907584 29.6041806 -3.0468244 25.20838601 -3.0625 20.8125 C-3.07087891 19.56662109 -3.07925781 18.32074219 -3.08789062 17.03710938 C-3.09111328 15.83505859 -3.09433594 14.63300781 -3.09765625 13.39453125 C-3.10289307 12.28956299 -3.10812988 11.18459473 -3.11352539 10.04614258 C-2.84515485 2.84515485 -2.84515485 2.84515485 0 0 Z " fill="#543F32" transform="translate(24,126)"/>
<path d="M0 0 C-1.07378906 0.45890625 -2.14757812 0.9178125 -3.25390625 1.390625 C-4.69019704 2.01020142 -6.12638974 2.63000526 -7.5625 3.25 C-8.26697266 3.55035156 -8.97144531 3.85070313 -9.69726562 4.16015625 C-13.21937992 5.68586475 -16.59153393 7.28754672 -19.90234375 9.234375 C-23 11 -23 11 -25 11 C-25 10.01 -25 9.02 -25 8 C-24.443125 7.75765625 -23.88625 7.5153125 -23.3125 7.265625 C-19.39879529 5.5467682 -15.54155571 3.78787158 -11.75 1.8125 C-7.56765424 -0.29945988 -4.59295377 -1.53098459 0 0 Z " fill="#463033" transform="translate(104,37)"/>
<path d="M0 0 C0.33 0 0.66 0 1 0 C1.81169046 9.84851091 -0.28147543 17.02241925 -4 26 C-4.66 26 -5.32 26 -6 26 C-5.81824219 25.37996094 -5.63648438 24.75992187 -5.44921875 24.12109375 C-3.18704977 16.15129841 -1.5476472 8.13337994 0 0 Z " fill="#4E3C36" transform="translate(525,414)"/>
<path d="M0 0 C-0.33 0.66 -0.66 1.32 -1 2 C-9.83801258 3.49414567 -19.06720547 3.12053246 -28 3 C-28 2.67 -28 2.34 -28 2 C-24.64826952 1.46262405 -21.29340039 0.94813202 -17.9375 0.4375 C-16.99455078 0.28603516 -16.05160156 0.13457031 -15.08007812 -0.02148438 C-9.74424167 -0.82093025 -5.29226297 -1.10836575 0 0 Z " fill="#563F37" transform="translate(438,515)"/>
<path d="M0 0 C0.33 1.32 0.66 2.64 1 4 C0.38125 4.2475 -0.2375 4.495 -0.875 4.75 C-3.12347802 5.80249898 -3.12347802 5.80249898 -3.875 7.875 C-5.51822246 10.97886464 -8.05425485 12.20693774 -11 14 C-11.99 13.34 -12.98 12.68 -14 12 C-12.98679687 11.20335937 -12.98679687 11.20335937 -11.953125 10.390625 C-11.06109375 9.68421875 -10.1690625 8.9778125 -9.25 8.25 C-8.36828125 7.55390625 -7.4865625 6.8578125 -6.578125 6.140625 C-4.24152752 4.20054103 -2.1061438 2.18487814 0 0 Z " fill="#44303B" transform="translate(489,483)"/>
<path d="M0 0 C0.33 0 0.66 0 1 0 C1.02693575 2.12493141 1.04636628 4.24995912 1.0625 6.375 C1.07410156 7.55835938 1.08570313 8.74171875 1.09765625 9.9609375 C1 13 1 13 0 15 C-0.23274209 17.87910588 -0.41972757 20.74146495 -0.5625 23.625 C-0.60568359 24.42679688 -0.64886719 25.22859375 -0.69335938 26.0546875 C-0.79951457 28.0362511 -0.90026855 30.01810271 -1 32 C-1.33 32 -1.66 32 -2 32 C-2.41277905 9.19872014 -2.41277905 9.19872014 0 0 Z " fill="#CCA35B" transform="translate(24,130)"/>
<path d="M0 0 C0 0.66 0 1.32 0 2 C-0.66 2 -1.32 2 -2 2 C-2 2.66 -2 3.32 -2 4 C-2.66 4 -3.32 4 -4 4 C-4 4.99 -4 5.98 -4 7 C-5.4117783 7.53394179 -6.82970244 8.05165104 -8.25 8.5625 C-9.03890625 8.85253906 -9.8278125 9.14257812 -10.640625 9.44140625 C-13.19103452 10.04522837 -14.55322229 9.8473932 -17 9 C-15.21118264 7.99491199 -13.41885304 6.99607264 -11.625 6 C-10.62726563 5.443125 -9.62953125 4.88625 -8.6015625 4.3125 C-6 3 -6 3 -4 3 C-4 2.34 -4 1.68 -4 1 C-2 0 -2 0 0 0 Z " fill="#503E3B" transform="translate(475,496)"/>
<path d="M0 0 C5.95925123 3.2350221 9.84612589 7.73842613 14 13 C14.98230498 14.0173873 15.97469597 15.02596117 17 16 C14.0625 15.25 14.0625 15.25 11 14 C10.6278958 12.67696283 10.29369827 11.34262065 10 10 C9.175 9.67 8.35 9.34 7.5 9 C6.2625 8.505 6.2625 8.505 5 8 C4.1875 5.875 4.1875 5.875 4 4 C2.68 3.67 1.36 3.34 0 3 C0 2.01 0 1.02 0 0 Z " fill="#D8AE60" transform="translate(148,396)"/>
<path d="M0 0 C4.49316995 4.09671378 7.97813973 8.71434062 11 14 C11 14.66 11 15.32 11 16 C7.17398693 14.54875366 5.77670876 12.64225296 4 9 C4 8.01 4 7.02 4 6 C3.01 6 2.02 6 1 6 C0.67 4.02 0.34 2.04 0 0 Z " fill="#CFA75F" transform="translate(500,320)"/>
<path d="M0 0 C2.75 0.125 2.75 0.125 6 1 C10 5.94736842 10 5.94736842 10 9 C12.475 9.99 12.475 9.99 15 11 C14.67 11.99 14.34 12.98 14 14 C8.8023806 9.76937956 3.88476156 5.52045063 0 0 Z " fill="#513C36" transform="translate(153,400)"/>
<path d="M0 0 C2 1 2 1 3.2890625 4.2734375 C3.74216125 5.63806434 4.18713794 7.0054082 4.625 8.375 C4.85445312 9.06078125 5.08390625 9.7465625 5.3203125 10.453125 C6.28795001 13.413635 7 15.86608457 7 19 C6.01 18.67 5.02 18.34 4 18 C3.87882813 17.34773438 3.75765625 16.69546875 3.6328125 16.0234375 C2.70867084 11.20368332 1.62440501 6.64115718 0 2 C0 1.34 0 0.68 0 0 Z " fill="#CDA55B" transform="translate(515,344)"/>
<path d="M0 0 C2.64 0.33 5.28 0.66 8 1 C8 1.66 8 2.32 8 3 C8.680625 3.103125 9.36125 3.20625 10.0625 3.3125 C13.63320419 4.14819673 16.72076626 5.36038313 20 7 C20.33 7.99 20.66 8.98 21 10 C17.57265183 8.68037931 14.32234322 7.18914467 11.0625 5.5 C7.44066236 3.66471904 3.91295102 2.13269635 0 1 C0 0.67 0 0.34 0 0 Z " fill="#61493C" transform="translate(447,281)"/>
<path d="M0 0 C5.7266425 2.9826263 10.26638344 6.62294157 15 11 C14.67 11.66 14.34 12.32 14 13 C13.34 13 12.68 13 12 13 C12 12.01 12 11.02 12 10 C11.01 9.67 10.02 9.34 9 9 C8.34 8.67 7.68 8.34 7 8 C7 7.34 7 6.68 7 6 C6.21625 5.7525 5.4325 5.505 4.625 5.25 C1.67682892 3.84610901 1.0975223 2.99324263 0 0 Z " fill="#D6AC5E" transform="translate(473,295)"/>
<path d="M0 0 C2.31 0 4.62 0 7 0 C7 1.32 7 2.64 7 4 C10.3863251 5.50930183 10.3863251 5.50930183 14 6 C14.33 6.99 14.66 7.98 15 9 C10.20630283 9 9.00827932 7.89115203 5.25 5.0625 C4.26515625 4.33160156 3.2803125 3.60070312 2.265625 2.84765625 C1.51796875 2.23792969 0.7703125 1.62820312 0 1 C0 0.67 0 0.34 0 0 Z " fill="#D4A75D" transform="translate(67,246)"/>
<path d="M0 0 C0.66 0.33 1.32 0.66 2 1 C2 1.66 2 2.32 2 3 C0.44148245 3.82011312 -1.12201716 4.63076213 -2.6875 5.4375 C-3.99267578 6.11619141 -3.99267578 6.11619141 -5.32421875 6.80859375 C-7.90998264 7.95991928 -10.21356528 8.56320753 -13 9 C-9.49391962 4.88416651 -4.95371163 2.09432982 0 0 Z " fill="#D7A95B" transform="translate(88,43)"/>
<path d="M0 0 C1.4639251 4.4503323 -0.05804116 6.81731942 -2 11 C-2.12375 11.7425 -2.2475 12.485 -2.375 13.25 C-3.36037942 16.00906238 -5.49245674 16.71408038 -8 18 C-6.443154 13.98696492 -4.68861143 10.0907072 -2.875 6.1875 C-2.33617187 5.02605469 -1.79734375 3.86460937 -1.2421875 2.66796875 C-0.62730469 1.34732422 -0.62730469 1.34732422 0 0 Z " fill="#5B443A" transform="translate(518,440)"/>
<path d="M0 0 C1.32 0.33 2.64 0.66 4 1 C4 1.66 4 2.32 4 3 C4.99 3.33 5.98 3.66 7 4 C9.6875 6.4375 9.6875 6.4375 12 9 C12 9.66 12 10.32 12 11 C12.66 11.33 13.32 11.66 14 12 C11 12 11 12 9.31640625 10.609375 C8.73761719 9.99578125 8.15882813 9.3821875 7.5625 8.75 C6.9540625 8.11320312 6.345625 7.47640625 5.71875 6.8203125 C5.1515625 6.21960938 4.584375 5.61890625 4 5 C3.195625 4.21625 2.39125 3.4325 1.5625 2.625 C0 1 0 1 0 0 Z " fill="#523B33" transform="translate(132,379)"/>
<path d="M0 0 C0 0.33 0 0.66 0 1 C-5.72040011 1.8320582 -11.22240116 2.12036664 -17 2 C-17 1.34 -17 0.68 -17 0 C-11.23073111 -1.40333568 -5.81856895 -0.67296616 0 0 Z " fill="#DAAC59" transform="translate(427,515)"/>
<path d="M0 0 C1.98 0.99 1.98 0.99 4 2 C4 2.66 4 3.32 4 4 C4.598125 4.268125 5.19625 4.53625 5.8125 4.8125 C7.97224808 5.98493467 9.35790256 7.19369282 11 9 C10.67 9.99 10.34 10.98 10 12 C8.32737283 10.38113585 6.66204463 8.7547271 5 7.125 C4.071875 6.22007812 3.14375 5.31515625 2.1875 4.3828125 C0 2 0 2 0 0 Z " fill="#46332F" transform="translate(193,437)"/>
<path d="M0 0 C4.52615993 3.67832017 8.39424999 7.41086363 12 12 C10.02 12 8.04 12 6 12 C5.938125 11.278125 5.87625 10.55625 5.8125 9.8125 C4.75776574 6.16149678 2.71850074 4.57909045 0 2 C0 1.34 0 0.68 0 0 Z " fill="#533C39" transform="translate(499,247)"/>
<path d="M0 0 C5.72108435 2.33081214 9.31913178 7.22850416 13 12 C12.01 12 11.02 12 10 12 C9.7525 11.38125 9.505 10.7625 9.25 10.125 C7.74997691 7.57496075 6.6302751 7.23777652 4 6 C1.75 4 1.75 4 0 2 C0 1.34 0 0.68 0 0 Z " fill="#4B3736" transform="translate(412,164)"/>
<path d="M0 0 C0.96218772 3.14897798 1.04930303 5.72762019 0.75 9 C0.68296875 9.845625 0.6159375 10.69125 0.546875 11.5625 C-0.07769168 14.34628293 -1.15455175 15.85689881 -3 18 C-3.36517527 11.42684522 -2.13619737 6.20514474 0 0 Z " fill="#CAA55B" transform="translate(28,112)"/>
<path d="M0 0 C0.99 0.33 1.98 0.66 3 1 C2.04578192 2.14926266 1.08647955 3.29430541 0.125 4.4375 C-0.40867187 5.07558594 -0.94234375 5.71367187 -1.4921875 6.37109375 C-3 8 -3 8 -5 9 C-5 6.69 -5 4.38 -5 2 C-3.35 2 -1.7 2 0 2 C0 1.34 0 0.68 0 0 Z " fill="#ECB956" transform="translate(495,473)"/>
<path d="M0 0 C0.66 0 1.32 0 2 0 C5.5439162 4.87288478 8.46197215 10.15549417 10 16 C5.22783949 11.75807955 1.2841481 6.32195986 0 0 Z " fill="#D9B061" transform="translate(35,206)"/>
<path d="M0 0 C1.2989839 0.90626784 2.58893167 1.82549537 3.875 2.75 C4.59429687 3.26046875 5.31359375 3.7709375 6.0546875 4.296875 C8.08570565 6.07503547 8.97855012 7.52701607 10 10 C8.02 9.34 6.04 8.68 4 8 C4 7.34 4 6.68 4 6 C3.01 5.67 2.02 5.34 1 5 C0.67 3.35 0.34 1.7 0 0 Z " fill="#DAB259" transform="translate(200,446)"/>
<path d="M0 0 C0.33 0 0.66 0 1 0 C1 7.26 1 14.52 1 22 C-0.65 20.35 -2.3 18.7 -4 17 C-2.68 17.33 -1.36 17.66 0 18 C0 12.06 0 6.12 0 0 Z " fill="#C0985B" transform="translate(526,252)"/>
<path d="M0 0 C0.33 1.32 0.66 2.64 1 4 C-1.41728167 7.29018893 -4.03613528 10.19212816 -7 13 C-7.66 12.67 -8.32 12.34 -9 12 C-6.03 8.04 -3.06 4.08 0 0 Z " fill="#D7AA5D" transform="translate(52,71)"/>
<path d="M0 0 C-4.34242429 4.34242429 -8.13551546 4.7444669 -14 5 C-10.63156097 2.05261585 -4.40469071 -2.20234535 0 0 Z " fill="#C9A25C" transform="translate(104,38)"/>
<path d="M0 0 C3 1 3 1 4.1328125 3.109375 C4.46023438 3.98078125 4.78765625 4.8521875 5.125 5.75 C5.45757813 6.61109375 5.79015625 7.4721875 6.1328125 8.359375 C6.96617277 10.89699457 7.53680766 13.37209246 8 16 C7.34 16 6.68 16 6 16 C5.18395001 14.0848421 4.37229368 12.16781166 3.5625 10.25 C3.11003906 9.18265625 2.65757812 8.1153125 2.19140625 7.015625 C1.26020447 4.6586159 0.5215928 2.47007165 0 0 Z " fill="#442F34" transform="translate(514,340)"/>
<path d="M0 0 C4.9723422 1.49170266 9.41845739 3.60457417 14 6 C14 6.33 14 6.66 14 7 C8.72676192 7.68041782 4.60611289 5.24786337 0 3 C0 2.01 0 1.02 0 0 Z " fill="#493438" transform="translate(85,259)"/>
<path d="M0 0 C3.24075555 3.24075555 3.56754142 6.42672736 4.08203125 10.78125 C3.98787039 13.32807713 3.28151054 14.82291646 2 17 C1.66151348 15.10507994 1.32943089 13.20901534 1 11.3125 C0.814375 10.25675781 0.62875 9.20101562 0.4375 8.11328125 C0.04931926 5.35095938 -0.08259976 2.78257957 0 0 Z " fill="#DFAF60" transform="translate(23,164)"/>
<path d="M0 0 C5 2 5 2 10 4 C9.67 4.99 9.34 5.98 9 7 C9.66 7 10.32 7 11 7 C10.67 7.99 10.34 8.98 10 10 C2.51708428 3.84965831 2.51708428 3.84965831 0 0 Z " fill="#D6AE5C" transform="translate(465,214)"/>
<path d="M0 0 C4.13621084 3.3810038 7.81316569 6.66590534 11 11 C10.01 11.495 10.01 11.495 9 12 C9 11.34 9 10.68 9 10 C8.01 10 7.02 10 6 10 C4.39453125 8.3203125 4.39453125 8.3203125 2.8125 6.125 C2.01779297 5.04605469 2.01779297 5.04605469 1.20703125 3.9453125 C0 2 0 2 0 0 Z " fill="#5A3F30" transform="translate(440,190)"/>
<path d="M0 0 C2.97 0.495 2.97 0.495 6 1 C6 2.32 6 3.64 6 5 C7.32 5.33 8.64 5.66 10 6 C9.67 6.99 9.34 7.98 9 9 C7.87105124 8.06725891 6.74699124 7.12859878 5.625 6.1875 C4.99851562 5.66542969 4.37203125 5.14335938 3.7265625 4.60546875 C2 3 2 3 0 0 Z " fill="#E5B45C" transform="translate(358,110)"/>
<path d="M0 0 C0.33 0 0.66 0 1 0 C1.08121924 1.60332791 1.13929134 3.20784026 1.1875 4.8125 C1.23970703 6.15248047 1.23970703 6.15248047 1.29296875 7.51953125 C1 10 1 10 -2 13 C-2 10.03 -2 7.06 -2 4 C-1.34 4 -0.68 4 0 4 C0 2.68 0 1.36 0 0 Z " fill="#4A3636" transform="translate(528,401)"/>
<path d="M0 0 C1.1055189 0.93590504 2.20935453 1.87379858 3.3125 2.8125 C3.92738281 3.33457031 4.54226562 3.85664063 5.17578125 4.39453125 C6.85424679 5.87172469 8.43882034 7.40039131 10 9 C8 9 6 9 4 9 C0 2.25 0 2.25 0 0 Z " fill="#503E37" transform="translate(61,241)"/>
<path d="M0 0 C0.66 0 1.32 0 2 0 C2.99 3.63 3.98 7.26 5 11 C4.01 11.495 4.01 11.495 3 12 C3 10.68 3 9.36 3 8 C2.34 8 1.68 8 1 8 C0.67 5.36 0.34 2.72 0 0 Z " fill="#473A38" transform="translate(25,185)"/>
<path d="M0 0 C3.80635497 3.20760251 7.54563567 6.40746109 11 10 C10.01 10.495 10.01 10.495 9 11 C7 9 7 9 6 7 C5.360625 6.731875 4.72125 6.46375 4.0625 6.1875 C1.31843292 4.60758259 0.93109876 2.9484794 0 0 Z " fill="#D0A75C" transform="translate(137,385)"/>
<path d="M0 0 C1.32 0 2.64 0 4 0 C4 0.66 4 1.32 4 2 C5.32 2.66 6.64 3.32 8 4 C8 5.32 8 6.64 8 8 C6.85073734 7.04578192 5.70569459 6.08647955 4.5625 5.125 C3.92441406 4.59132813 3.28632813 4.05765625 2.62890625 3.5078125 C1 2 1 2 0 0 Z " fill="#DCAE5D" transform="translate(311,65)"/>
<path d="M0 0 C2.97 0 5.94 0 9 0 C9 0.66 9 1.32 9 2 C11.31 2.33 13.62 2.66 16 3 C12.23331402 4.3805087 9.55210827 3.59568159 5.75 2.5625 C4.13351563 2.13130859 4.13351563 2.13130859 2.484375 1.69140625 C1.25460938 1.34916016 1.25460938 1.34916016 0 1 C0 0.67 0 0.34 0 0 Z " fill="#B88D58" transform="translate(112,269)"/>
<path d="M0 0 C2.35171131 0.59861742 4.6859378 1.26924352 7 2 C7.33 2.66 7.66 3.32 8 4 C7.67 4.66 7.34 5.32 7 6 C7.66 6 8.32 6 9 6 C8.67 6.66 8.34 7.32 8 8 C6.66372225 6.85760183 5.33104612 5.71098945 4 4.5625 C3.2575 3.92441406 2.515 3.28632813 1.75 2.62890625 C1.1725 2.09136719 0.595 1.55382812 0 1 C0 0.67 0 0.34 0 0 Z " fill="#513F3B" transform="translate(61,311)"/>
<path d="M0 0 C3.93673644 1.31224548 6.22719294 2.91910327 9 6 C8.67 6.99 8.34 7.98 8 9 C6.66368764 7.6905332 5.33102075 6.37734515 4 5.0625 C3.2575 4.33160156 2.515 3.60070312 1.75 2.84765625 C0 1 0 1 0 0 Z " fill="#533E38" transform="translate(25,276)"/>
<path d="M0 0 C1.33897583 0.95043374 2.67105427 1.91059147 4 2.875 C5.11375 3.67550781 5.11375 3.67550781 6.25 4.4921875 C6.8275 4.98976562 7.405 5.48734375 8 6 C8 6.66 8 7.32 8 8 C6.68 8 5.36 8 4 8 C3.67 6.68 3.34 5.36 3 4 C2.34 4 1.68 4 1 4 C0.67 2.68 0.34 1.36 0 0 Z " fill="#4D3C38" transform="translate(465,215)"/>
<path d="M0 0 C1.98 0 3.96 0 6 0 C6.33 2.31 6.66 4.62 7 7 C5.83040013 6.02433888 4.66438823 5.044375 3.5 4.0625 C2.8503125 3.51722656 2.200625 2.97195313 1.53125 2.41015625 C1.0259375 1.94480469 0.520625 1.47945313 0 1 C0 0.67 0 0.34 0 0 Z " fill="#4A393B" transform="translate(229,473)"/>
<path d="M0 0 C3.98175544 2.10148204 6.35039045 4.36905358 9 8 C7.35 7.67 5.7 7.34 4 7 C4 6.01 4 5.02 4 4 C3.01 4 2.02 4 1 4 C0.67 2.68 0.34 1.36 0 0 Z " fill="#4E3839" transform="translate(473,223)"/>
<path d="M0 0 C2.31 1.98 4.62 3.96 7 6 C6.34 6.66 5.68 7.32 5 8 C4.34 7.67 3.68 7.34 3 7 C2.67 7.66 2.34 8.32 2 9 C1.34 6.03 0.68 3.06 0 0 Z " fill="#493440" transform="translate(276,32)"/>
<path d="M0 0 C5.4611399 0.35233161 5.4611399 0.35233161 8 1 C9.5 3.0625 9.5 3.0625 10 5 C2.42857143 3.14285714 2.42857143 3.14285714 0 0 Z " fill="#CDA560" transform="translate(89,260)"/>
<path d="M0 0 C3.65316671 1.24976756 4.78065836 1.67098753 7 5 C6.67 5.99 6.34 6.98 6 8 C1.125 3.375 1.125 3.375 0 0 Z " fill="#E2AD62" transform="translate(48,226)"/>
<path d="M0 0 C1.14926266 0.95421808 2.29430541 1.91352045 3.4375 2.875 C4.07558594 3.40867188 4.71367187 3.94234375 5.37109375 4.4921875 C7 6 7 6 8 8 C5.6875 7.8125 5.6875 7.8125 3 7 C0 2.96551724 0 2.96551724 0 0 Z " fill="#463539" transform="translate(455,205)"/>
<path d="M0 0 C1.14926266 0.95421808 2.29430541 1.91352045 3.4375 2.875 C4.07558594 3.40867188 4.71367187 3.94234375 5.37109375 4.4921875 C7 6 7 6 8 8 C4.12867972 7.42647107 1.91827204 5.51295648 -1 3 C-0.67 2.01 -0.34 1.02 0 0 Z " fill="#513B39" transform="translate(384,136)"/>
<path d="M0 0 C1.98 0 3.96 0 6 0 C6 1.65 6 3.3 6 5 C6.66 5 7.32 5 8 5 C7.67 5.66 7.34 6.32 7 7 C5.83040013 6.02433888 4.66438823 5.044375 3.5 4.0625 C2.8503125 3.51722656 2.200625 2.97195312 1.53125 2.41015625 C1.0259375 1.94480469 0.520625 1.47945313 0 1 C0 0.67 0 0.34 0 0 Z " fill="#D0A959" transform="translate(319,73)"/>
<path d="M0 0 C2.31 1.65 4.62 3.3 7 5 C6.34 5.66 5.68 6.32 5 7 C2.875 6.625 2.875 6.625 1 6 C0.67 4.02 0.34 2.04 0 0 Z " fill="#DBB35A" transform="translate(64,315)"/>
<path d="M0 0 C2.4375 0.8125 2.4375 0.8125 5 2 C5.33 2.99 5.66 3.98 6 5 C6.99 4.67 7.98 4.34 9 4 C8.34 5.32 7.68 6.64 7 8 C5.83035398 6.8572081 4.66435444 5.71068285 3.5 4.5625 C2.8503125 3.92441406 2.200625 3.28632813 1.53125 2.62890625 C0 1 0 1 0 0 Z " fill="#50353A" transform="translate(486,304)"/>
<path d="M0 0 C2.64752004 2.57784846 4.94432065 4.91648098 7 8 C5.35 8 3.7 8 2 8 C1.34 5.36 0.68 2.72 0 0 Z " fill="#493933" transform="translate(53,233)"/>
<path d="M0 0 C1.14926266 0.95421808 2.29430541 1.91352045 3.4375 2.875 C4.07558594 3.40867188 4.71367187 3.94234375 5.37109375 4.4921875 C7 6 7 6 8 8 C6.68 8 5.36 8 4 8 C0 2.88888889 0 2.88888889 0 0 Z " fill="#503439" transform="translate(482,231)"/>
<path d="M0 0 C1.14926266 0.95421808 2.29430541 1.91352045 3.4375 2.875 C4.07558594 3.40867188 4.71367187 3.94234375 5.37109375 4.4921875 C7 6 7 6 8 8 C5.6875 7.8125 5.6875 7.8125 3 7 C0 2.96551724 0 2.96551724 0 0 Z " fill="#413233" transform="translate(283,39)"/>
<path d="M0 0 C2.97 0.495 2.97 0.495 6 1 C6.33 1.99 6.66 2.98 7 4 C7.66 4.66 8.32 5.32 9 6 C4.58763974 6 3.21615077 3.9302707 0 1 C0 0.67 0 0.34 0 0 Z " fill="#513736" transform="translate(40,291)"/>
<path d="M0 0 C3.96 0.33 7.92 0.66 12 1 C12 1.99 12 2.98 12 4 C6.06 2.515 6.06 2.515 0 1 C0 0.67 0 0.34 0 0 Z " fill="#D4AB5E" transform="translate(99,265)"/>
<path d="M0 0 C3.63 1.98 7.26 3.96 11 6 C7 7 7 7 4.25 5.6875 C3.5075 5.130625 2.765 4.57375 2 4 C2 3.34 2 2.68 2 2 C1.34 2 0.68 2 0 2 C0 1.34 0 0.68 0 0 Z " fill="#4A3737" transform="translate(74,252)"/>
<path d="M0 0 C0.33 0 0.66 0 1 0 C0.91291331 1.45945288 0.80473093 2.91765868 0.6875 4.375 C0.62949219 5.18710938 0.57148437 5.99921875 0.51171875 6.8359375 C0 9 0 9 -3 11 C-2.88590407 9.54077307 -2.75834456 8.08259402 -2.625 6.625 C-2.55539063 5.81289062 -2.48578125 5.00078125 -2.4140625 4.1640625 C-2 2 -2 2 0 0 Z " fill="#5B424A" transform="translate(43,77)"/>
<path d="M0 0 C0.33 1.32 0.66 2.64 1 4 C-0.98 5.32 -2.96 6.64 -5 8 C-5.66 7.67 -6.32 7.34 -7 7 C-4.69 4.69 -2.38 2.38 0 0 Z " fill="#573F34" transform="translate(489,483)"/>
<path d="M0 0 C1 2 1 2 0.375 4.0625 C-1 6 -1 6 -3.625 6.75 C-4.800625 6.87375 -4.800625 6.87375 -6 7 C-4.02 4.69 -2.04 2.38 0 0 Z " fill="#5B4438" transform="translate(496,476)"/>
<path d="M0 0 C1.14926266 0.95421808 2.29430541 1.91352045 3.4375 2.875 C4.07558594 3.40867187 4.71367187 3.94234375 5.37109375 4.4921875 C7 6 7 6 8 8 C4.11137013 6.73882275 2.10624401 5.54735833 0 2 C0 1.34 0 0.68 0 0 Z " fill="#DCB261" transform="translate(228,473)"/>
<path d="M0 0 C2.3125 0.1875 2.3125 0.1875 5 1 C6.8125 3.5625 6.8125 3.5625 8 6 C5 6 5 6 3.61328125 4.6875 C2.40885417 3.125 1.20442708 1.5625 0 0 Z " fill="#4E3638" transform="translate(110,358)"/>
<path d="M0 0 C1.98 1.65 3.96 3.3 6 5 C5.01 5.495 5.01 5.495 4 6 C1.375 5.0625 1.375 5.0625 -1 4 C-0.67 2.68 -0.34 1.36 0 0 Z " fill="#E2B85C" transform="translate(56,307)"/>
<path d="M0 0 C0.66 0 1.32 0 2 0 C4.09230769 4.43076923 4.09230769 4.43076923 3.625 7.3125 C3.41875 7.869375 3.2125 8.42625 3 9 C0 3.375 0 3.375 0 0 Z " fill="#CCA55A" transform="translate(30,194)"/>
<path d="M0 0 C1.98 1.65 3.96 3.3 6 5 C2.25 6.125 2.25 6.125 0 5 C0 3.35 0 1.7 0 0 Z " fill="#523F36" transform="translate(326,80)"/>
<path d="M0 0 C-2.31 1.65 -4.62 3.3 -7 5 C-6.67 3.35 -6.34 1.7 -6 0 C-3 -1 -3 -1 0 0 Z " fill="#4F3837" transform="translate(66,59)"/>
<path d="M0 0 C2.475 0.495 2.475 0.495 5 1 C5.12375 1.639375 5.2475 2.27875 5.375 2.9375 C5.684375 3.9584375 5.684375 3.9584375 6 5 C6.66 5.33 7.32 5.66 8 6 C5 6 5 6 3.61328125 4.6875 C2.40885417 3.125 1.20442708 1.5625 0 0 Z " fill="#CCA55A" transform="translate(285,40)"/>
<path d="M0 0 C2.375 0.3125 2.375 0.3125 5 1 C5.66 1.99 6.32 2.98 7 4 C6.67 4.99 6.34 5.98 6 7 C4.02 4.69 2.04 2.38 0 0 Z " fill="#D8AC5F" transform="translate(278,33)"/>
<path d="M0 0 C-0.33 0.99 -0.66 1.98 -1 3 C-3.64 3 -6.28 3 -9 3 C-6.01800145 0.01800145 -4.21244839 0 0 0 Z " fill="#E7B461" transform="translate(131,31)"/>
<path d="M0 0 C1.98 1.65 3.96 3.3 6 5 C5.34 5.66 4.68 6.32 4 7 C4 6.34 4 5.68 4 5 C2.68 4.67 1.36 4.34 0 4 C0 2.68 0 1.36 0 0 Z " fill="#D6AC60" transform="translate(248,492)"/>
<path d="M0 0 C1.65 1.65 3.3 3.3 5 5 C3.35 5.33 1.7 5.66 0 6 C0 4.02 0 2.04 0 0 Z " fill="#D9AA5A" transform="translate(215,460)"/>
<path d="M0 0 C2.475 0.99 2.475 0.99 5 2 C5 2.66 5 3.32 5 4 C5.99 4.33 6.98 4.66 8 5 C7.34 5.66 6.68 6.32 6 7 C4.02 4.69 2.04 2.38 0 0 Z " fill="#DAAC5C" transform="translate(367,119)"/>
<path d="M0 0 C1.65 1.65 3.3 3.3 5 5 C3.35 5.66 1.7 6.32 0 7 C0 4.69 0 2.38 0 0 Z " fill="#433040" transform="translate(340,94)"/>
</svg>
